<?xml version="1.0" encoding="UTF-8" standalone="no"?>
<!DOCTYPE svg PUBLIC "-//W3C//DTD SVG 1.1//EN"
 "http://www.w3.org/Graphics/SVG/1.1/DTD/svg11.dtd">
<!-- Generated by graphviz version 12.2.1 (20241206.2353)
 -->
<!-- Title: snakemake_dag Pages: 1 -->
<svg width="489pt" height="188pt"
 viewBox="0.00 0.00 489.00 188.00" xmlns="http://www.w3.org/2000/svg" xmlns:xlink="http://www.w3.org/1999/xlink">
<g id="graph0" class="graph" transform="scale(1 1) rotate(0) translate(4 184)">
<title>snakemake_dag</title>
<polygon fill="white" stroke="none" points="-4,4 -4,-184 485,-184 485,4 -4,4"/>
<!-- 0 -->
<g id="node1" class="node">
<title>0</title>
<path fill="none" stroke="#56d89a" stroke-width="2" stroke-dasharray="5,2" d="M57.5,-36C57.5,-36 27.5,-36 27.5,-36 21.5,-36 15.5,-30 15.5,-24 15.5,-24 15.5,-12 15.5,-12 15.5,-6 21.5,0 27.5,0 27.5,0 57.5,0 57.5,0 63.5,0 69.5,-6 69.5,-12 69.5,-12 69.5,-24 69.5,-24 69.5,-30 63.5,-36 57.5,-36"/>
<text text-anchor="middle" x="42.5" y="-14.12" font-family="sans" font-size="10.00">simplify</text>
</g>
<!-- 1 -->
<g id="node2" class="node">
<title>1</title>
<path fill="none" stroke="#d89556" stroke-width="2" stroke-dasharray="5,2" d="M57.5,-108C57.5,-108 27.5,-108 27.5,-108 21.5,-108 15.5,-102 15.5,-96 15.5,-96 15.5,-84 15.5,-84 15.5,-78 21.5,-72 27.5,-72 27.5,-72 57.5,-72 57.5,-72 63.5,-72 69.5,-78 69.5,-84 69.5,-84 69.5,-96 69.5,-96 69.5,-102 63.5,-108 57.5,-108"/>
<text text-anchor="middle" x="42.5" y="-86.12" font-family="sans" font-size="10.00">ortho</text>
</g>
<!-- 1&#45;&gt;0 -->
<g id="edge1" class="edge">
<title>1&#45;&gt;0</title>
<path fill="none" stroke="grey" stroke-width="2" d="M42.5,-71.34C42.5,-64.75 42.5,-57.08 42.5,-49.67"/>
<polygon fill="grey" stroke="grey" stroke-width="2" points="46,-49.93 42.5,-39.93 39,-49.93 46,-49.93"/>
</g>
<!-- 2 -->
<g id="node3" class="node">
<title>2</title>
<path fill="none" stroke="#59d856" stroke-width="2" stroke-dasharray="5,2" d="M73,-180C73,-180 12,-180 12,-180 6,-180 0,-174 0,-168 0,-168 0,-156 0,-156 0,-150 6,-144 12,-144 12,-144 73,-144 73,-144 79,-144 85,-150 85,-156 85,-156 85,-168 85,-168 85,-174 79,-180 73,-180"/>
<text text-anchor="middle" x="42.5" y="-163.75" font-family="sans" font-size="10.00">rotate</text>
<text text-anchor="middle" x="42.5" y="-152.5" font-family="sans" font-size="10.00">sample: 146915</text>
</g>
<!-- 2&#45;&gt;1 -->
<g id="edge2" class="edge">
<title>2&#45;&gt;1</title>
<path fill="none" stroke="grey" stroke-width="2" d="M42.5,-143.34C42.5,-136.75 42.5,-129.08 42.5,-121.67"/>
<polygon fill="grey" stroke="grey" stroke-width="2" points="46,-121.93 42.5,-111.93 39,-121.93 46,-121.93"/>
</g>
<!-- 3 -->
<g id="node4" class="node">
<title>3</title>
<path fill="none" stroke="#56d89a" stroke-width="2" stroke-dasharray="5,2" d="M157.5,-36C157.5,-36 127.5,-36 127.5,-36 121.5,-36 115.5,-30 115.5,-24 115.5,-24 115.5,-12 115.5,-12 115.5,-6 121.5,0 127.5,0 127.5,0 157.5,0 157.5,0 163.5,0 169.5,-6 169.5,-12 169.5,-12 169.5,-24 169.5,-24 169.5,-30 163.5,-36 157.5,-36"/>
<text text-anchor="middle" x="142.5" y="-14.12" font-family="sans" font-size="10.00">simplify</text>
</g>
<!-- 4 -->
<g id="node5" class="node">
<title>4</title>
<path fill="none" stroke="#d89556" stroke-width="2" stroke-dasharray="5,2" d="M157.5,-108C157.5,-108 127.5,-108 127.5,-108 121.5,-108 115.5,-102 115.5,-96 115.5,-96 115.5,-84 115.5,-84 115.5,-78 121.5,-72 127.5,-72 127.5,-72 157.5,-72 157.5,-72 163.5,-72 169.5,-78 169.5,-84 169.5,-84 169.5,-96 169.5,-96 169.5,-102 163.5,-108 157.5,-108"/>
<text text-anchor="middle" x="142.5" y="-86.12" font-family="sans" font-size="10.00">ortho</text>
</g>
<!-- 4&#45;&gt;3 -->
<g id="edge3" class="edge">
<title>4&#45;&gt;3</title>
<path fill="none" stroke="grey" stroke-width="2" d="M142.5,-71.34C142.5,-64.75 142.5,-57.08 142.5,-49.67"/>
<polygon fill="grey" stroke="grey" stroke-width="2" points="146,-49.93 142.5,-39.93 139,-49.93 146,-49.93"/>
</g>
<!-- 5 -->
<g id="node6" class="node">
<title>5</title>
<path fill="none" stroke="#59d856" stroke-width="2" stroke-dasharray="5,2" d="M170.38,-180C170.38,-180 114.62,-180 114.62,-180 108.62,-180 102.62,-174 102.62,-168 102.62,-168 102.62,-156 102.62,-156 102.62,-150 108.62,-144 114.62,-144 114.62,-144 170.38,-144 170.38,-144 176.38,-144 182.38,-150 182.38,-156 182.38,-156 182.38,-168 182.38,-168 182.38,-174 176.38,-180 170.38,-180"/>
<text text-anchor="middle" x="142.5" y="-163.75" font-family="sans" font-size="10.00">rotate</text>
<text text-anchor="middle" x="142.5" y="-152.5" font-family="sans" font-size="10.00">sample: 67372</text>
</g>
<!-- 5&#45;&gt;4 -->
<g id="edge4" class="edge">
<title>5&#45;&gt;4</title>
<path fill="none" stroke="grey" stroke-width="2" d="M142.5,-143.34C142.5,-136.75 142.5,-129.08 142.5,-121.67"/>
<polygon fill="grey" stroke="grey" stroke-width="2" points="146,-121.93 142.5,-111.93 139,-121.93 146,-121.93"/>
</g>
<!-- 6 -->
<g id="node7" class="node">
<title>6</title>
<path fill="none" stroke="#56d89a" stroke-width="2" stroke-dasharray="5,2" d="M255.5,-36C255.5,-36 225.5,-36 225.5,-36 219.5,-36 213.5,-30 213.5,-24 213.5,-24 213.5,-12 213.5,-12 213.5,-6 219.5,0 225.5,0 225.5,0 255.5,0 255.5,0 261.5,0 267.5,-6 267.5,-12 267.5,-12 267.5,-24 267.5,-24 267.5,-30 261.5,-36 255.5,-36"/>
<text text-anchor="middle" x="240.5" y="-14.12" font-family="sans" font-size="10.00">simplify</text>
</g>
<!-- 7 -->
<g id="node8" class="node">
<title>7</title>
<path fill="none" stroke="#d89556" stroke-width="2" stroke-dasharray="5,2" d="M255.5,-108C255.5,-108 225.5,-108 225.5,-108 219.5,-108 213.5,-102 213.5,-96 213.5,-96 213.5,-84 213.5,-84 213.5,-78 219.5,-72 225.5,-72 225.5,-72 255.5,-72 255.5,-72 261.5,-72 267.5,-78 267.5,-84 267.5,-84 267.5,-96 267.5,-96 267.5,-102 261.5,-108 255.5,-108"/>
<text text-anchor="middle" x="240.5" y="-86.12" font-family="sans" font-size="10.00">ortho</text>
</g>
<!-- 7&#45;&gt;6 -->
<g id="edge5" class="edge">
<title>7&#45;&gt;6</title>
<path fill="none" stroke="grey" stroke-width="2" d="M240.5,-71.34C240.5,-64.75 240.5,-57.08 240.5,-49.67"/>
<polygon fill="grey" stroke="grey" stroke-width="2" points="244,-49.93 240.5,-39.93 237,-49.93 244,-49.93"/>
</g>
<!-- 8 -->
<g id="node9" class="node">
<title>8</title>
<path fill="none" stroke="#59d856" stroke-width="2" stroke-dasharray="5,2" d="M268.38,-180C268.38,-180 212.62,-180 212.62,-180 206.62,-180 200.62,-174 200.62,-168 200.62,-168 200.62,-156 200.62,-156 200.62,-150 206.62,-144 212.62,-144 212.62,-144 268.38,-144 268.38,-144 274.38,-144 280.38,-150 280.38,-156 280.38,-156 280.38,-168 280.38,-168 280.38,-174 274.38,-180 268.38,-180"/>
<text text-anchor="middle" x="240.5" y="-163.75" font-family="sans" font-size="10.00">rotate</text>
<text text-anchor="middle" x="240.5" y="-152.5" font-family="sans" font-size="10.00">sample: 49943</text>
</g>
<!-- 8&#45;&gt;7 -->
<g id="edge6" class="edge">
<title>8&#45;&gt;7</title>
<path fill="none" stroke="grey" stroke-width="2" d="M240.5,-143.34C240.5,-136.75 240.5,-129.08 240.5,-121.67"/>
<polygon fill="grey" stroke="grey" stroke-width="2" points="244,-121.93 240.5,-111.93 237,-121.93 244,-121.93"/>
</g>
<!-- 9 -->
<g id="node10" class="node">
<title>9</title>
<path fill="none" stroke="#56d89a" stroke-width="2" stroke-dasharray="5,2" d="M353.5,-36C353.5,-36 323.5,-36 323.5,-36 317.5,-36 311.5,-30 311.5,-24 311.5,-24 311.5,-12 311.5,-12 311.5,-6 317.5,0 323.5,0 323.5,0 353.5,0 353.5,0 359.5,0 365.5,-6 365.5,-12 365.5,-12 365.5,-24 365.5,-24 365.5,-30 359.5,-36 353.5,-36"/>
<text text-anchor="middle" x="338.5" y="-14.12" font-family="sans" font-size="10.00">simplify</text>
</g>
<!-- 10 -->
<g id="node11" class="node">
<title>10</title>
<path fill="none" stroke="#d89556" stroke-width="2" stroke-dasharray="5,2" d="M353.5,-108C353.5,-108 323.5,-108 323.5,-108 317.5,-108 311.5,-102 311.5,-96 311.5,-96 311.5,-84 311.5,-84 311.5,-78 317.5,-72 323.5,-72 323.5,-72 353.5,-72 353.5,-72 359.5,-72 365.5,-78 365.5,-84 365.5,-84 365.5,-96 365.5,-96 365.5,-102 359.5,-108 353.5,-108"/>
<text text-anchor="middle" x="338.5" y="-86.12" font-family="sans" font-size="10.00">ortho</text>
</g>
<!-- 10&#45;&gt;9 -->
<g id="edge7" class="edge">
<title>10&#45;&gt;9</title>
<path fill="none" stroke="grey" stroke-width="2" d="M338.5,-71.34C338.5,-64.75 338.5,-57.08 338.5,-49.67"/>
<polygon fill="grey" stroke="grey" stroke-width="2" points="342,-49.93 338.5,-39.93 335,-49.93 342,-49.93"/>
</g>
<!-- 11 -->
<g id="node12" class="node">
<title>11</title>
<path fill="none" stroke="#59d856" stroke-width="2" stroke-dasharray="5,2" d="M366.38,-180C366.38,-180 310.62,-180 310.62,-180 304.62,-180 298.62,-174 298.62,-168 298.62,-168 298.62,-156 298.62,-156 298.62,-150 304.62,-144 310.62,-144 310.62,-144 366.38,-144 366.38,-144 372.38,-144 378.38,-150 378.38,-156 378.38,-156 378.38,-168 378.38,-168 378.38,-174 372.38,-180 366.38,-180"/>
<text text-anchor="middle" x="338.5" y="-163.75" font-family="sans" font-size="10.00">rotate</text>
<text text-anchor="middle" x="338.5" y="-152.5" font-family="sans" font-size="10.00">sample: 27540</text>
</g>
<!-- 11&#45;&gt;10 -->
<g id="edge8" class="edge">
<title>11&#45;&gt;10</title>
<path fill="none" stroke="grey" stroke-width="2" d="M338.5,-143.34C338.5,-136.75 338.5,-129.08 338.5,-121.67"/>
<polygon fill="grey" stroke="grey" stroke-width="2" points="342,-121.93 338.5,-111.93 335,-121.93 342,-121.93"/>
</g>
<!-- 12 -->
<g id="node13" class="node">
<title>12</title>
<path fill="none" stroke="#56d89a" stroke-width="2" stroke-dasharray="5,2" d="M453.5,-36C453.5,-36 423.5,-36 423.5,-36 417.5,-36 411.5,-30 411.5,-24 411.5,-24 411.5,-12 411.5,-12 411.5,-6 417.5,0 423.5,0 423.5,0 453.5,0 453.5,0 459.5,0 465.5,-6 465.5,-12 465.5,-12 465.5,-24 465.5,-24 465.5,-30 459.5,-36 453.5,-36"/>
<text text-anchor="middle" x="438.5" y="-14.12" font-family="sans" font-size="10.00">simplify</text>
</g>
<!-- 13 -->
<g id="node14" class="node">
<title>13</title>
<path fill="none" stroke="#d89556" stroke-width="2" stroke-dasharray="5,2" d="M453.5,-108C453.5,-108 423.5,-108 423.5,-108 417.5,-108 411.5,-102 411.5,-96 411.5,-96 411.5,-84 411.5,-84 411.5,-78 417.5,-72 423.5,-72 423.5,-72 453.5,-72 453.5,-72 459.5,-72 465.5,-78 465.5,-84 465.5,-84 465.5,-96 465.5,-96 465.5,-102 459.5,-108 453.5,-108"/>
<text text-anchor="middle" x="438.5" y="-86.12" font-family="sans" font-size="10.00">ortho</text>
</g>
<!-- 13&#45;&gt;12 -->
<g id="edge9" class="edge">
<title>13&#45;&gt;12</title>
<path fill="none" stroke="grey" stroke-width="2" d="M438.5,-71.34C438.5,-64.75 438.5,-57.08 438.5,-49.67"/>
<polygon fill="grey" stroke="grey" stroke-width="2" points="442,-49.93 438.5,-39.93 435,-49.93 442,-49.93"/>
</g>
<!-- 14 -->
<g id="node15" class="node">
<title>14</title>
<path fill="none" stroke="#59d856" stroke-width="2" stroke-dasharray="5,2" d="M469,-180C469,-180 408,-180 408,-180 402,-180 396,-174 396,-168 396,-168 396,-156 396,-156 396,-150 402,-144 408,-144 408,-144 469,-144 469,-144 475,-144 481,-150 481,-156 481,-156 481,-168 481,-168 481,-174 475,-180 469,-180"/>
<text text-anchor="middle" x="438.5" y="-163.75" font-family="sans" font-size="10.00">rotate</text>
<text text-anchor="middle" x="438.5" y="-152.5" font-family="sans" font-size="10.00">sample: 146903</text>
</g>
<!-- 14&#45;&gt;13 -->
<g id="edge10" class="edge">
<title>14&#45;&gt;13</title>
<path fill="none" stroke="grey" stroke-width="2" d="M438.5,-143.34C438.5,-136.75 438.5,-129.08 438.5,-121.67"/>
<polygon fill="grey" stroke="grey" stroke-width="2" points="442,-121.93 438.5,-111.93 435,-121.93 442,-121.93"/>
</g>
</g>
</svg>
