<?xml version="1.0" encoding="UTF-8" standalone="no"?>
<!DOCTYPE svg PUBLIC "-//W3C//DTD SVG 1.1//EN"
 "http://www.w3.org/Graphics/SVG/1.1/DTD/svg11.dtd">
<!-- Generated by graphviz version 12.2.1 (20241206.2353)
 -->
<!-- Title: snakemake_dag Pages: 1 -->
<svg width="1967pt" height="116pt"
 viewBox="0.00 0.00 1966.75 116.00" xmlns="http://www.w3.org/2000/svg" xmlns:xlink="http://www.w3.org/1999/xlink">
<g id="graph0" class="graph" transform="scale(1 1) rotate(0) translate(4 112)">
<title>snakemake_dag</title>
<polygon fill="white" stroke="none" points="-4,4 -4,-112 1962.75,-112 1962.75,4 -4,4"/>
<!-- 0 -->
<g id="node1" class="node">
<title>0</title>
<path fill="none" stroke="#d89556" stroke-width="2" stroke-dasharray="5,2" d="M54.88,-36C54.88,-36 24.88,-36 24.88,-36 18.88,-36 12.88,-30 12.88,-24 12.88,-24 12.88,-12 12.88,-12 12.88,-6 18.88,0 24.88,0 24.88,0 54.88,0 54.88,0 60.88,0 66.88,-6 66.88,-12 66.88,-12 66.88,-24 66.88,-24 66.88,-30 60.88,-36 54.88,-36"/>
<text text-anchor="middle" x="39.88" y="-14.12" font-family="sans" font-size="10.00">ortho</text>
</g>
<!-- 1 -->
<g id="node2" class="node">
<title>1</title>
<path fill="none" stroke="#59d856" stroke-width="2" stroke-dasharray="5,2" d="M67.75,-108C67.75,-108 12,-108 12,-108 6,-108 0,-102 0,-96 0,-96 0,-84 0,-84 0,-78 6,-72 12,-72 12,-72 67.75,-72 67.75,-72 73.75,-72 79.75,-78 79.75,-84 79.75,-84 79.75,-96 79.75,-96 79.75,-102 73.75,-108 67.75,-108"/>
<text text-anchor="middle" x="39.88" y="-91.75" font-family="sans" font-size="10.00">rotate</text>
<text text-anchor="middle" x="39.88" y="-80.5" font-family="sans" font-size="10.00">sample: 71318</text>
</g>
<!-- 1&#45;&gt;0 -->
<g id="edge1" class="edge">
<title>1&#45;&gt;0</title>
<path fill="none" stroke="grey" stroke-width="2" d="M39.88,-71.34C39.88,-64.75 39.88,-57.08 39.88,-49.67"/>
<polygon fill="grey" stroke="grey" stroke-width="2" points="43.38,-49.93 39.88,-39.93 36.38,-49.93 43.38,-49.93"/>
</g>
<!-- 2 -->
<g id="node3" class="node">
<title>2</title>
<path fill="none" stroke="#d89556" stroke-width="2" stroke-dasharray="5,2" d="M152.88,-36C152.88,-36 122.88,-36 122.88,-36 116.88,-36 110.88,-30 110.88,-24 110.88,-24 110.88,-12 110.88,-12 110.88,-6 116.88,0 122.88,0 122.88,0 152.88,0 152.88,0 158.88,0 164.88,-6 164.88,-12 164.88,-12 164.88,-24 164.88,-24 164.88,-30 158.88,-36 152.88,-36"/>
<text text-anchor="middle" x="137.88" y="-14.12" font-family="sans" font-size="10.00">ortho</text>
</g>
<!-- 3 -->
<g id="node4" class="node">
<title>3</title>
<path fill="none" stroke="#59d856" stroke-width="2" stroke-dasharray="5,2" d="M165.75,-108C165.75,-108 110,-108 110,-108 104,-108 98,-102 98,-96 98,-96 98,-84 98,-84 98,-78 104,-72 110,-72 110,-72 165.75,-72 165.75,-72 171.75,-72 177.75,-78 177.75,-84 177.75,-84 177.75,-96 177.75,-96 177.75,-102 171.75,-108 165.75,-108"/>
<text text-anchor="middle" x="137.88" y="-91.75" font-family="sans" font-size="10.00">rotate</text>
<text text-anchor="middle" x="137.88" y="-80.5" font-family="sans" font-size="10.00">sample: 67372</text>
</g>
<!-- 3&#45;&gt;2 -->
<g id="edge2" class="edge">
<title>3&#45;&gt;2</title>
<path fill="none" stroke="grey" stroke-width="2" d="M137.88,-71.34C137.88,-64.75 137.88,-57.08 137.88,-49.67"/>
<polygon fill="grey" stroke="grey" stroke-width="2" points="141.38,-49.93 137.88,-39.93 134.38,-49.93 141.38,-49.93"/>
</g>
<!-- 4 -->
<g id="node5" class="node">
<title>4</title>
<path fill="none" stroke="#d89556" stroke-width="2" stroke-dasharray="5,2" d="M250.88,-36C250.88,-36 220.88,-36 220.88,-36 214.88,-36 208.88,-30 208.88,-24 208.88,-24 208.88,-12 208.88,-12 208.88,-6 214.88,0 220.88,0 220.88,0 250.88,0 250.88,0 256.88,0 262.88,-6 262.88,-12 262.88,-12 262.88,-24 262.88,-24 262.88,-30 256.88,-36 250.88,-36"/>
<text text-anchor="middle" x="235.88" y="-14.12" font-family="sans" font-size="10.00">ortho</text>
</g>
<!-- 5 -->
<g id="node6" class="node">
<title>5</title>
<path fill="none" stroke="#59d856" stroke-width="2" stroke-dasharray="5,2" d="M263.75,-108C263.75,-108 208,-108 208,-108 202,-108 196,-102 196,-96 196,-96 196,-84 196,-84 196,-78 202,-72 208,-72 208,-72 263.75,-72 263.75,-72 269.75,-72 275.75,-78 275.75,-84 275.75,-84 275.75,-96 275.75,-96 275.75,-102 269.75,-108 263.75,-108"/>
<text text-anchor="middle" x="235.88" y="-91.75" font-family="sans" font-size="10.00">rotate</text>
<text text-anchor="middle" x="235.88" y="-80.5" font-family="sans" font-size="10.00">sample: 48204</text>
</g>
<!-- 5&#45;&gt;4 -->
<g id="edge3" class="edge">
<title>5&#45;&gt;4</title>
<path fill="none" stroke="grey" stroke-width="2" d="M235.88,-71.34C235.88,-64.75 235.88,-57.08 235.88,-49.67"/>
<polygon fill="grey" stroke="grey" stroke-width="2" points="239.38,-49.93 235.88,-39.93 232.38,-49.93 239.38,-49.93"/>
</g>
<!-- 6 -->
<g id="node7" class="node">
<title>6</title>
<path fill="none" stroke="#d89556" stroke-width="2" stroke-dasharray="5,2" d="M348.88,-36C348.88,-36 318.88,-36 318.88,-36 312.88,-36 306.88,-30 306.88,-24 306.88,-24 306.88,-12 306.88,-12 306.88,-6 312.88,0 318.88,0 318.88,0 348.88,0 348.88,0 354.88,0 360.88,-6 360.88,-12 360.88,-12 360.88,-24 360.88,-24 360.88,-30 354.88,-36 348.88,-36"/>
<text text-anchor="middle" x="333.88" y="-14.12" font-family="sans" font-size="10.00">ortho</text>
</g>
<!-- 7 -->
<g id="node8" class="node">
<title>7</title>
<path fill="none" stroke="#59d856" stroke-width="2" stroke-dasharray="5,2" d="M361.75,-108C361.75,-108 306,-108 306,-108 300,-108 294,-102 294,-96 294,-96 294,-84 294,-84 294,-78 300,-72 306,-72 306,-72 361.75,-72 361.75,-72 367.75,-72 373.75,-78 373.75,-84 373.75,-84 373.75,-96 373.75,-96 373.75,-102 367.75,-108 361.75,-108"/>
<text text-anchor="middle" x="333.88" y="-91.75" font-family="sans" font-size="10.00">rotate</text>
<text text-anchor="middle" x="333.88" y="-80.5" font-family="sans" font-size="10.00">sample: 67408</text>
</g>
<!-- 7&#45;&gt;6 -->
<g id="edge4" class="edge">
<title>7&#45;&gt;6</title>
<path fill="none" stroke="grey" stroke-width="2" d="M333.88,-71.34C333.88,-64.75 333.88,-57.08 333.88,-49.67"/>
<polygon fill="grey" stroke="grey" stroke-width="2" points="337.38,-49.93 333.88,-39.93 330.38,-49.93 337.38,-49.93"/>
</g>
<!-- 8 -->
<g id="node9" class="node">
<title>8</title>
<path fill="none" stroke="#d89556" stroke-width="2" stroke-dasharray="5,2" d="M446.88,-36C446.88,-36 416.88,-36 416.88,-36 410.88,-36 404.88,-30 404.88,-24 404.88,-24 404.88,-12 404.88,-12 404.88,-6 410.88,0 416.88,0 416.88,0 446.88,0 446.88,0 452.88,0 458.88,-6 458.88,-12 458.88,-12 458.88,-24 458.88,-24 458.88,-30 452.88,-36 446.88,-36"/>
<text text-anchor="middle" x="431.88" y="-14.12" font-family="sans" font-size="10.00">ortho</text>
</g>
<!-- 9 -->
<g id="node10" class="node">
<title>9</title>
<path fill="none" stroke="#59d856" stroke-width="2" stroke-dasharray="5,2" d="M459.75,-108C459.75,-108 404,-108 404,-108 398,-108 392,-102 392,-96 392,-96 392,-84 392,-84 392,-78 398,-72 404,-72 404,-72 459.75,-72 459.75,-72 465.75,-72 471.75,-78 471.75,-84 471.75,-84 471.75,-96 471.75,-96 471.75,-102 465.75,-108 459.75,-108"/>
<text text-anchor="middle" x="431.88" y="-91.75" font-family="sans" font-size="10.00">rotate</text>
<text text-anchor="middle" x="431.88" y="-80.5" font-family="sans" font-size="10.00">sample: 19792</text>
</g>
<!-- 9&#45;&gt;8 -->
<g id="edge5" class="edge">
<title>9&#45;&gt;8</title>
<path fill="none" stroke="grey" stroke-width="2" d="M431.88,-71.34C431.88,-64.75 431.88,-57.08 431.88,-49.67"/>
<polygon fill="grey" stroke="grey" stroke-width="2" points="435.38,-49.93 431.88,-39.93 428.38,-49.93 435.38,-49.93"/>
</g>
<!-- 10 -->
<g id="node11" class="node">
<title>10</title>
<path fill="none" stroke="#d89556" stroke-width="2" stroke-dasharray="5,2" d="M544.88,-36C544.88,-36 514.88,-36 514.88,-36 508.88,-36 502.88,-30 502.88,-24 502.88,-24 502.88,-12 502.88,-12 502.88,-6 508.88,0 514.88,0 514.88,0 544.88,0 544.88,0 550.88,0 556.88,-6 556.88,-12 556.88,-12 556.88,-24 556.88,-24 556.88,-30 550.88,-36 544.88,-36"/>
<text text-anchor="middle" x="529.88" y="-14.12" font-family="sans" font-size="10.00">ortho</text>
</g>
<!-- 11 -->
<g id="node12" class="node">
<title>11</title>
<path fill="none" stroke="#59d856" stroke-width="2" stroke-dasharray="5,2" d="M557.75,-108C557.75,-108 502,-108 502,-108 496,-108 490,-102 490,-96 490,-96 490,-84 490,-84 490,-78 496,-72 502,-72 502,-72 557.75,-72 557.75,-72 563.75,-72 569.75,-78 569.75,-84 569.75,-84 569.75,-96 569.75,-96 569.75,-102 563.75,-108 557.75,-108"/>
<text text-anchor="middle" x="529.88" y="-91.75" font-family="sans" font-size="10.00">rotate</text>
<text text-anchor="middle" x="529.88" y="-80.5" font-family="sans" font-size="10.00">sample: 60529</text>
</g>
<!-- 11&#45;&gt;10 -->
<g id="edge6" class="edge">
<title>11&#45;&gt;10</title>
<path fill="none" stroke="grey" stroke-width="2" d="M529.88,-71.34C529.88,-64.75 529.88,-57.08 529.88,-49.67"/>
<polygon fill="grey" stroke="grey" stroke-width="2" points="533.38,-49.93 529.88,-39.93 526.38,-49.93 533.38,-49.93"/>
</g>
<!-- 12 -->
<g id="node13" class="node">
<title>12</title>
<path fill="none" stroke="#d89556" stroke-width="2" stroke-dasharray="5,2" d="M642.88,-36C642.88,-36 612.88,-36 612.88,-36 606.88,-36 600.88,-30 600.88,-24 600.88,-24 600.88,-12 600.88,-12 600.88,-6 606.88,0 612.88,0 612.88,0 642.88,0 642.88,0 648.88,0 654.88,-6 654.88,-12 654.88,-12 654.88,-24 654.88,-24 654.88,-30 648.88,-36 642.88,-36"/>
<text text-anchor="middle" x="627.88" y="-14.12" font-family="sans" font-size="10.00">ortho</text>
</g>
<!-- 13 -->
<g id="node14" class="node">
<title>13</title>
<path fill="none" stroke="#59d856" stroke-width="2" stroke-dasharray="5,2" d="M655.75,-108C655.75,-108 600,-108 600,-108 594,-108 588,-102 588,-96 588,-96 588,-84 588,-84 588,-78 594,-72 600,-72 600,-72 655.75,-72 655.75,-72 661.75,-72 667.75,-78 667.75,-84 667.75,-84 667.75,-96 667.75,-96 667.75,-102 661.75,-108 655.75,-108"/>
<text text-anchor="middle" x="627.88" y="-91.75" font-family="sans" font-size="10.00">rotate</text>
<text text-anchor="middle" x="627.88" y="-80.5" font-family="sans" font-size="10.00">sample: 57231</text>
</g>
<!-- 13&#45;&gt;12 -->
<g id="edge7" class="edge">
<title>13&#45;&gt;12</title>
<path fill="none" stroke="grey" stroke-width="2" d="M627.88,-71.34C627.88,-64.75 627.88,-57.08 627.88,-49.67"/>
<polygon fill="grey" stroke="grey" stroke-width="2" points="631.38,-49.93 627.88,-39.93 624.38,-49.93 631.38,-49.93"/>
</g>
<!-- 14 -->
<g id="node15" class="node">
<title>14</title>
<path fill="none" stroke="#d89556" stroke-width="2" stroke-dasharray="5,2" d="M742.88,-36C742.88,-36 712.88,-36 712.88,-36 706.88,-36 700.88,-30 700.88,-24 700.88,-24 700.88,-12 700.88,-12 700.88,-6 706.88,0 712.88,0 712.88,0 742.88,0 742.88,0 748.88,0 754.88,-6 754.88,-12 754.88,-12 754.88,-24 754.88,-24 754.88,-30 748.88,-36 742.88,-36"/>
<text text-anchor="middle" x="727.88" y="-14.12" font-family="sans" font-size="10.00">ortho</text>
</g>
<!-- 15 -->
<g id="node16" class="node">
<title>15</title>
<path fill="none" stroke="#59d856" stroke-width="2" stroke-dasharray="5,2" d="M758.38,-108C758.38,-108 697.38,-108 697.38,-108 691.38,-108 685.38,-102 685.38,-96 685.38,-96 685.38,-84 685.38,-84 685.38,-78 691.38,-72 697.38,-72 697.38,-72 758.38,-72 758.38,-72 764.38,-72 770.38,-78 770.38,-84 770.38,-84 770.38,-96 770.38,-96 770.38,-102 764.38,-108 758.38,-108"/>
<text text-anchor="middle" x="727.88" y="-91.75" font-family="sans" font-size="10.00">rotate</text>
<text text-anchor="middle" x="727.88" y="-80.5" font-family="sans" font-size="10.00">sample: 146903</text>
</g>
<!-- 15&#45;&gt;14 -->
<g id="edge8" class="edge">
<title>15&#45;&gt;14</title>
<path fill="none" stroke="grey" stroke-width="2" d="M727.88,-71.34C727.88,-64.75 727.88,-57.08 727.88,-49.67"/>
<polygon fill="grey" stroke="grey" stroke-width="2" points="731.38,-49.93 727.88,-39.93 724.38,-49.93 731.38,-49.93"/>
</g>
<!-- 16 -->
<g id="node17" class="node">
<title>16</title>
<path fill="none" stroke="#d89556" stroke-width="2" stroke-dasharray="5,2" d="M842.88,-36C842.88,-36 812.88,-36 812.88,-36 806.88,-36 800.88,-30 800.88,-24 800.88,-24 800.88,-12 800.88,-12 800.88,-6 806.88,0 812.88,0 812.88,0 842.88,0 842.88,0 848.88,0 854.88,-6 854.88,-12 854.88,-12 854.88,-24 854.88,-24 854.88,-30 848.88,-36 842.88,-36"/>
<text text-anchor="middle" x="827.88" y="-14.12" font-family="sans" font-size="10.00">ortho</text>
</g>
<!-- 17 -->
<g id="node18" class="node">
<title>17</title>
<path fill="none" stroke="#59d856" stroke-width="2" stroke-dasharray="5,2" d="M855.75,-108C855.75,-108 800,-108 800,-108 794,-108 788,-102 788,-96 788,-96 788,-84 788,-84 788,-78 794,-72 800,-72 800,-72 855.75,-72 855.75,-72 861.75,-72 867.75,-78 867.75,-84 867.75,-84 867.75,-96 867.75,-96 867.75,-102 861.75,-108 855.75,-108"/>
<text text-anchor="middle" x="827.88" y="-91.75" font-family="sans" font-size="10.00">rotate</text>
<text text-anchor="middle" x="827.88" y="-80.5" font-family="sans" font-size="10.00">sample: 71308</text>
</g>
<!-- 17&#45;&gt;16 -->
<g id="edge9" class="edge">
<title>17&#45;&gt;16</title>
<path fill="none" stroke="grey" stroke-width="2" d="M827.88,-71.34C827.88,-64.75 827.88,-57.08 827.88,-49.67"/>
<polygon fill="grey" stroke="grey" stroke-width="2" points="831.38,-49.93 827.88,-39.93 824.38,-49.93 831.38,-49.93"/>
</g>
<!-- 18 -->
<g id="node19" class="node">
<title>18</title>
<path fill="none" stroke="#d89556" stroke-width="2" stroke-dasharray="5,2" d="M940.88,-36C940.88,-36 910.88,-36 910.88,-36 904.88,-36 898.88,-30 898.88,-24 898.88,-24 898.88,-12 898.88,-12 898.88,-6 904.88,0 910.88,0 910.88,0 940.88,0 940.88,0 946.88,0 952.88,-6 952.88,-12 952.88,-12 952.88,-24 952.88,-24 952.88,-30 946.88,-36 940.88,-36"/>
<text text-anchor="middle" x="925.88" y="-14.12" font-family="sans" font-size="10.00">ortho</text>
</g>
<!-- 19 -->
<g id="node20" class="node">
<title>19</title>
<path fill="none" stroke="#59d856" stroke-width="2" stroke-dasharray="5,2" d="M953.75,-108C953.75,-108 898,-108 898,-108 892,-108 886,-102 886,-96 886,-96 886,-84 886,-84 886,-78 892,-72 898,-72 898,-72 953.75,-72 953.75,-72 959.75,-72 965.75,-78 965.75,-84 965.75,-84 965.75,-96 965.75,-96 965.75,-102 959.75,-108 953.75,-108"/>
<text text-anchor="middle" x="925.88" y="-91.75" font-family="sans" font-size="10.00">rotate</text>
<text text-anchor="middle" x="925.88" y="-80.5" font-family="sans" font-size="10.00">sample: 49943</text>
</g>
<!-- 19&#45;&gt;18 -->
<g id="edge10" class="edge">
<title>19&#45;&gt;18</title>
<path fill="none" stroke="grey" stroke-width="2" d="M925.88,-71.34C925.88,-64.75 925.88,-57.08 925.88,-49.67"/>
<polygon fill="grey" stroke="grey" stroke-width="2" points="929.38,-49.93 925.88,-39.93 922.38,-49.93 929.38,-49.93"/>
</g>
<!-- 20 -->
<g id="node21" class="node">
<title>20</title>
<path fill="none" stroke="#d89556" stroke-width="2" stroke-dasharray="5,2" d="M1038.88,-36C1038.88,-36 1008.88,-36 1008.88,-36 1002.88,-36 996.88,-30 996.88,-24 996.88,-24 996.88,-12 996.88,-12 996.88,-6 1002.88,0 1008.88,0 1008.88,0 1038.88,0 1038.88,0 1044.88,0 1050.88,-6 1050.88,-12 1050.88,-12 1050.88,-24 1050.88,-24 1050.88,-30 1044.88,-36 1038.88,-36"/>
<text text-anchor="middle" x="1023.88" y="-14.12" font-family="sans" font-size="10.00">ortho</text>
</g>
<!-- 21 -->
<g id="node22" class="node">
<title>21</title>
<path fill="none" stroke="#59d856" stroke-width="2" stroke-dasharray="5,2" d="M1051.75,-108C1051.75,-108 996,-108 996,-108 990,-108 984,-102 984,-96 984,-96 984,-84 984,-84 984,-78 990,-72 996,-72 996,-72 1051.75,-72 1051.75,-72 1057.75,-72 1063.75,-78 1063.75,-84 1063.75,-84 1063.75,-96 1063.75,-96 1063.75,-102 1057.75,-108 1051.75,-108"/>
<text text-anchor="middle" x="1023.88" y="-91.75" font-family="sans" font-size="10.00">rotate</text>
<text text-anchor="middle" x="1023.88" y="-80.5" font-family="sans" font-size="10.00">sample: 60532</text>
</g>
<!-- 21&#45;&gt;20 -->
<g id="edge11" class="edge">
<title>21&#45;&gt;20</title>
<path fill="none" stroke="grey" stroke-width="2" d="M1023.88,-71.34C1023.88,-64.75 1023.88,-57.08 1023.88,-49.67"/>
<polygon fill="grey" stroke="grey" stroke-width="2" points="1027.38,-49.93 1023.88,-39.93 1020.38,-49.93 1027.38,-49.93"/>
</g>
<!-- 22 -->
<g id="node23" class="node">
<title>22</title>
<path fill="none" stroke="#d89556" stroke-width="2" stroke-dasharray="5,2" d="M1138.88,-36C1138.88,-36 1108.88,-36 1108.88,-36 1102.88,-36 1096.88,-30 1096.88,-24 1096.88,-24 1096.88,-12 1096.88,-12 1096.88,-6 1102.88,0 1108.88,0 1108.88,0 1138.88,0 1138.88,0 1144.88,0 1150.88,-6 1150.88,-12 1150.88,-12 1150.88,-24 1150.88,-24 1150.88,-30 1144.88,-36 1138.88,-36"/>
<text text-anchor="middle" x="1123.88" y="-14.12" font-family="sans" font-size="10.00">ortho</text>
</g>
<!-- 23 -->
<g id="node24" class="node">
<title>23</title>
<path fill="none" stroke="#59d856" stroke-width="2" stroke-dasharray="5,2" d="M1154.38,-108C1154.38,-108 1093.38,-108 1093.38,-108 1087.38,-108 1081.38,-102 1081.38,-96 1081.38,-96 1081.38,-84 1081.38,-84 1081.38,-78 1087.38,-72 1093.38,-72 1093.38,-72 1154.38,-72 1154.38,-72 1160.38,-72 1166.38,-78 1166.38,-84 1166.38,-84 1166.38,-96 1166.38,-96 1166.38,-102 1160.38,-108 1154.38,-108"/>
<text text-anchor="middle" x="1123.88" y="-91.75" font-family="sans" font-size="10.00">rotate</text>
<text text-anchor="middle" x="1123.88" y="-80.5" font-family="sans" font-size="10.00">sample: 146965</text>
</g>
<!-- 23&#45;&gt;22 -->
<g id="edge12" class="edge">
<title>23&#45;&gt;22</title>
<path fill="none" stroke="grey" stroke-width="2" d="M1123.88,-71.34C1123.88,-64.75 1123.88,-57.08 1123.88,-49.67"/>
<polygon fill="grey" stroke="grey" stroke-width="2" points="1127.38,-49.93 1123.88,-39.93 1120.38,-49.93 1127.38,-49.93"/>
</g>
<!-- 24 -->
<g id="node25" class="node">
<title>24</title>
<path fill="none" stroke="#d89556" stroke-width="2" stroke-dasharray="5,2" d="M1238.88,-36C1238.88,-36 1208.88,-36 1208.88,-36 1202.88,-36 1196.88,-30 1196.88,-24 1196.88,-24 1196.88,-12 1196.88,-12 1196.88,-6 1202.88,0 1208.88,0 1208.88,0 1238.88,0 1238.88,0 1244.88,0 1250.88,-6 1250.88,-12 1250.88,-12 1250.88,-24 1250.88,-24 1250.88,-30 1244.88,-36 1238.88,-36"/>
<text text-anchor="middle" x="1223.88" y="-14.12" font-family="sans" font-size="10.00">ortho</text>
</g>
<!-- 25 -->
<g id="node26" class="node">
<title>25</title>
<path fill="none" stroke="#59d856" stroke-width="2" stroke-dasharray="5,2" d="M1251.75,-108C1251.75,-108 1196,-108 1196,-108 1190,-108 1184,-102 1184,-96 1184,-96 1184,-84 1184,-84 1184,-78 1190,-72 1196,-72 1196,-72 1251.75,-72 1251.75,-72 1257.75,-72 1263.75,-78 1263.75,-84 1263.75,-84 1263.75,-96 1263.75,-96 1263.75,-102 1257.75,-108 1251.75,-108"/>
<text text-anchor="middle" x="1223.88" y="-91.75" font-family="sans" font-size="10.00">rotate</text>
<text text-anchor="middle" x="1223.88" y="-80.5" font-family="sans" font-size="10.00">sample: 56958</text>
</g>
<!-- 25&#45;&gt;24 -->
<g id="edge13" class="edge">
<title>25&#45;&gt;24</title>
<path fill="none" stroke="grey" stroke-width="2" d="M1223.88,-71.34C1223.88,-64.75 1223.88,-57.08 1223.88,-49.67"/>
<polygon fill="grey" stroke="grey" stroke-width="2" points="1227.38,-49.93 1223.88,-39.93 1220.38,-49.93 1227.38,-49.93"/>
</g>
<!-- 26 -->
<g id="node27" class="node">
<title>26</title>
<path fill="none" stroke="#d89556" stroke-width="2" stroke-dasharray="5,2" d="M1338.88,-36C1338.88,-36 1308.88,-36 1308.88,-36 1302.88,-36 1296.88,-30 1296.88,-24 1296.88,-24 1296.88,-12 1296.88,-12 1296.88,-6 1302.88,0 1308.88,0 1308.88,0 1338.88,0 1338.88,0 1344.88,0 1350.88,-6 1350.88,-12 1350.88,-12 1350.88,-24 1350.88,-24 1350.88,-30 1344.88,-36 1338.88,-36"/>
<text text-anchor="middle" x="1323.88" y="-14.12" font-family="sans" font-size="10.00">ortho</text>
</g>
<!-- 27 -->
<g id="node28" class="node">
<title>27</title>
<path fill="none" stroke="#59d856" stroke-width="2" stroke-dasharray="5,2" d="M1354.38,-108C1354.38,-108 1293.38,-108 1293.38,-108 1287.38,-108 1281.38,-102 1281.38,-96 1281.38,-96 1281.38,-84 1281.38,-84 1281.38,-78 1287.38,-72 1293.38,-72 1293.38,-72 1354.38,-72 1354.38,-72 1360.38,-72 1366.38,-78 1366.38,-84 1366.38,-84 1366.38,-96 1366.38,-96 1366.38,-102 1360.38,-108 1354.38,-108"/>
<text text-anchor="middle" x="1323.88" y="-91.75" font-family="sans" font-size="10.00">rotate</text>
<text text-anchor="middle" x="1323.88" y="-80.5" font-family="sans" font-size="10.00">sample: 106493</text>
</g>
<!-- 27&#45;&gt;26 -->
<g id="edge14" class="edge">
<title>27&#45;&gt;26</title>
<path fill="none" stroke="grey" stroke-width="2" d="M1323.88,-71.34C1323.88,-64.75 1323.88,-57.08 1323.88,-49.67"/>
<polygon fill="grey" stroke="grey" stroke-width="2" points="1327.38,-49.93 1323.88,-39.93 1320.38,-49.93 1327.38,-49.93"/>
</g>
<!-- 28 -->
<g id="node29" class="node">
<title>28</title>
<path fill="none" stroke="#d89556" stroke-width="2" stroke-dasharray="5,2" d="M1441.88,-36C1441.88,-36 1411.88,-36 1411.88,-36 1405.88,-36 1399.88,-30 1399.88,-24 1399.88,-24 1399.88,-12 1399.88,-12 1399.88,-6 1405.88,0 1411.88,0 1411.88,0 1441.88,0 1441.88,0 1447.88,0 1453.88,-6 1453.88,-12 1453.88,-12 1453.88,-24 1453.88,-24 1453.88,-30 1447.88,-36 1441.88,-36"/>
<text text-anchor="middle" x="1426.88" y="-14.12" font-family="sans" font-size="10.00">ortho</text>
</g>
<!-- 29 -->
<g id="node30" class="node">
<title>29</title>
<path fill="none" stroke="#59d856" stroke-width="2" stroke-dasharray="5,2" d="M1457.38,-108C1457.38,-108 1396.38,-108 1396.38,-108 1390.38,-108 1384.38,-102 1384.38,-96 1384.38,-96 1384.38,-84 1384.38,-84 1384.38,-78 1390.38,-72 1396.38,-72 1396.38,-72 1457.38,-72 1457.38,-72 1463.38,-72 1469.38,-78 1469.38,-84 1469.38,-84 1469.38,-96 1469.38,-96 1469.38,-102 1463.38,-108 1457.38,-108"/>
<text text-anchor="middle" x="1426.88" y="-91.75" font-family="sans" font-size="10.00">rotate</text>
<text text-anchor="middle" x="1426.88" y="-80.5" font-family="sans" font-size="10.00">sample: 146915</text>
</g>
<!-- 29&#45;&gt;28 -->
<g id="edge15" class="edge">
<title>29&#45;&gt;28</title>
<path fill="none" stroke="grey" stroke-width="2" d="M1426.88,-71.34C1426.88,-64.75 1426.88,-57.08 1426.88,-49.67"/>
<polygon fill="grey" stroke="grey" stroke-width="2" points="1430.38,-49.93 1426.88,-39.93 1423.38,-49.93 1430.38,-49.93"/>
</g>
<!-- 30 -->
<g id="node31" class="node">
<title>30</title>
<path fill="none" stroke="#d89556" stroke-width="2" stroke-dasharray="5,2" d="M1541.88,-36C1541.88,-36 1511.88,-36 1511.88,-36 1505.88,-36 1499.88,-30 1499.88,-24 1499.88,-24 1499.88,-12 1499.88,-12 1499.88,-6 1505.88,0 1511.88,0 1511.88,0 1541.88,0 1541.88,0 1547.88,0 1553.88,-6 1553.88,-12 1553.88,-12 1553.88,-24 1553.88,-24 1553.88,-30 1547.88,-36 1541.88,-36"/>
<text text-anchor="middle" x="1526.88" y="-14.12" font-family="sans" font-size="10.00">ortho</text>
</g>
<!-- 31 -->
<g id="node32" class="node">
<title>31</title>
<path fill="none" stroke="#59d856" stroke-width="2" stroke-dasharray="5,2" d="M1554.75,-108C1554.75,-108 1499,-108 1499,-108 1493,-108 1487,-102 1487,-96 1487,-96 1487,-84 1487,-84 1487,-78 1493,-72 1499,-72 1499,-72 1554.75,-72 1554.75,-72 1560.75,-72 1566.75,-78 1566.75,-84 1566.75,-84 1566.75,-96 1566.75,-96 1566.75,-102 1560.75,-108 1554.75,-108"/>
<text text-anchor="middle" x="1526.88" y="-91.75" font-family="sans" font-size="10.00">rotate</text>
<text text-anchor="middle" x="1526.88" y="-80.5" font-family="sans" font-size="10.00">sample: 22940</text>
</g>
<!-- 31&#45;&gt;30 -->
<g id="edge16" class="edge">
<title>31&#45;&gt;30</title>
<path fill="none" stroke="grey" stroke-width="2" d="M1526.88,-71.34C1526.88,-64.75 1526.88,-57.08 1526.88,-49.67"/>
<polygon fill="grey" stroke="grey" stroke-width="2" points="1530.38,-49.93 1526.88,-39.93 1523.38,-49.93 1530.38,-49.93"/>
</g>
<!-- 32 -->
<g id="node33" class="node">
<title>32</title>
<path fill="none" stroke="#d89556" stroke-width="2" stroke-dasharray="5,2" d="M1639.88,-36C1639.88,-36 1609.88,-36 1609.88,-36 1603.88,-36 1597.88,-30 1597.88,-24 1597.88,-24 1597.88,-12 1597.88,-12 1597.88,-6 1603.88,0 1609.88,0 1609.88,0 1639.88,0 1639.88,0 1645.88,0 1651.88,-6 1651.88,-12 1651.88,-12 1651.88,-24 1651.88,-24 1651.88,-30 1645.88,-36 1639.88,-36"/>
<text text-anchor="middle" x="1624.88" y="-14.12" font-family="sans" font-size="10.00">ortho</text>
</g>
<!-- 33 -->
<g id="node34" class="node">
<title>33</title>
<path fill="none" stroke="#59d856" stroke-width="2" stroke-dasharray="5,2" d="M1652.75,-108C1652.75,-108 1597,-108 1597,-108 1591,-108 1585,-102 1585,-96 1585,-96 1585,-84 1585,-84 1585,-78 1591,-72 1597,-72 1597,-72 1652.75,-72 1652.75,-72 1658.75,-72 1664.75,-78 1664.75,-84 1664.75,-84 1664.75,-96 1664.75,-96 1664.75,-102 1658.75,-108 1652.75,-108"/>
<text text-anchor="middle" x="1624.88" y="-91.75" font-family="sans" font-size="10.00">rotate</text>
<text text-anchor="middle" x="1624.88" y="-80.5" font-family="sans" font-size="10.00">sample: 27540</text>
</g>
<!-- 33&#45;&gt;32 -->
<g id="edge17" class="edge">
<title>33&#45;&gt;32</title>
<path fill="none" stroke="grey" stroke-width="2" d="M1624.88,-71.34C1624.88,-64.75 1624.88,-57.08 1624.88,-49.67"/>
<polygon fill="grey" stroke="grey" stroke-width="2" points="1628.38,-49.93 1624.88,-39.93 1621.38,-49.93 1628.38,-49.93"/>
</g>
<!-- 34 -->
<g id="node35" class="node">
<title>34</title>
<path fill="none" stroke="#d89556" stroke-width="2" stroke-dasharray="5,2" d="M1737.88,-36C1737.88,-36 1707.88,-36 1707.88,-36 1701.88,-36 1695.88,-30 1695.88,-24 1695.88,-24 1695.88,-12 1695.88,-12 1695.88,-6 1701.88,0 1707.88,0 1707.88,0 1737.88,0 1737.88,0 1743.88,0 1749.88,-6 1749.88,-12 1749.88,-12 1749.88,-24 1749.88,-24 1749.88,-30 1743.88,-36 1737.88,-36"/>
<text text-anchor="middle" x="1722.88" y="-14.12" font-family="sans" font-size="10.00">ortho</text>
</g>
<!-- 35 -->
<g id="node36" class="node">
<title>35</title>
<path fill="none" stroke="#59d856" stroke-width="2" stroke-dasharray="5,2" d="M1750.75,-108C1750.75,-108 1695,-108 1695,-108 1689,-108 1683,-102 1683,-96 1683,-96 1683,-84 1683,-84 1683,-78 1689,-72 1695,-72 1695,-72 1750.75,-72 1750.75,-72 1756.75,-72 1762.75,-78 1762.75,-84 1762.75,-84 1762.75,-96 1762.75,-96 1762.75,-102 1756.75,-108 1750.75,-108"/>
<text text-anchor="middle" x="1722.88" y="-91.75" font-family="sans" font-size="10.00">rotate</text>
<text text-anchor="middle" x="1722.88" y="-80.5" font-family="sans" font-size="10.00">sample: 60553</text>
</g>
<!-- 35&#45;&gt;34 -->
<g id="edge18" class="edge">
<title>35&#45;&gt;34</title>
<path fill="none" stroke="grey" stroke-width="2" d="M1722.88,-71.34C1722.88,-64.75 1722.88,-57.08 1722.88,-49.67"/>
<polygon fill="grey" stroke="grey" stroke-width="2" points="1726.38,-49.93 1722.88,-39.93 1719.38,-49.93 1726.38,-49.93"/>
</g>
<!-- 36 -->
<g id="node37" class="node">
<title>36</title>
<path fill="none" stroke="#d89556" stroke-width="2" stroke-dasharray="5,2" d="M1835.88,-36C1835.88,-36 1805.88,-36 1805.88,-36 1799.88,-36 1793.88,-30 1793.88,-24 1793.88,-24 1793.88,-12 1793.88,-12 1793.88,-6 1799.88,0 1805.88,0 1805.88,0 1835.88,0 1835.88,0 1841.88,0 1847.88,-6 1847.88,-12 1847.88,-12 1847.88,-24 1847.88,-24 1847.88,-30 1841.88,-36 1835.88,-36"/>
<text text-anchor="middle" x="1820.88" y="-14.12" font-family="sans" font-size="10.00">ortho</text>
</g>
<!-- 37 -->
<g id="node38" class="node">
<title>37</title>
<path fill="none" stroke="#59d856" stroke-width="2" stroke-dasharray="5,2" d="M1848.75,-108C1848.75,-108 1793,-108 1793,-108 1787,-108 1781,-102 1781,-96 1781,-96 1781,-84 1781,-84 1781,-78 1787,-72 1793,-72 1793,-72 1848.75,-72 1848.75,-72 1854.75,-72 1860.75,-78 1860.75,-84 1860.75,-84 1860.75,-96 1860.75,-96 1860.75,-102 1854.75,-108 1848.75,-108"/>
<text text-anchor="middle" x="1820.88" y="-91.75" font-family="sans" font-size="10.00">rotate</text>
<text text-anchor="middle" x="1820.88" y="-80.5" font-family="sans" font-size="10.00">sample: 58613</text>
</g>
<!-- 37&#45;&gt;36 -->
<g id="edge19" class="edge">
<title>37&#45;&gt;36</title>
<path fill="none" stroke="grey" stroke-width="2" d="M1820.88,-71.34C1820.88,-64.75 1820.88,-57.08 1820.88,-49.67"/>
<polygon fill="grey" stroke="grey" stroke-width="2" points="1824.38,-49.93 1820.88,-39.93 1817.38,-49.93 1824.38,-49.93"/>
</g>
<!-- 38 -->
<g id="node39" class="node">
<title>38</title>
<path fill="none" stroke="#d89556" stroke-width="2" stroke-dasharray="5,2" d="M1933.88,-36C1933.88,-36 1903.88,-36 1903.88,-36 1897.88,-36 1891.88,-30 1891.88,-24 1891.88,-24 1891.88,-12 1891.88,-12 1891.88,-6 1897.88,0 1903.88,0 1903.88,0 1933.88,0 1933.88,0 1939.88,0 1945.88,-6 1945.88,-12 1945.88,-12 1945.88,-24 1945.88,-24 1945.88,-30 1939.88,-36 1933.88,-36"/>
<text text-anchor="middle" x="1918.88" y="-14.12" font-family="sans" font-size="10.00">ortho</text>
</g>
<!-- 39 -->
<g id="node40" class="node">
<title>39</title>
<path fill="none" stroke="#59d856" stroke-width="2" stroke-dasharray="5,2" d="M1946.75,-108C1946.75,-108 1891,-108 1891,-108 1885,-108 1879,-102 1879,-96 1879,-96 1879,-84 1879,-84 1879,-78 1885,-72 1891,-72 1891,-72 1946.75,-72 1946.75,-72 1952.75,-72 1958.75,-78 1958.75,-84 1958.75,-84 1958.75,-96 1958.75,-96 1958.75,-102 1952.75,-108 1946.75,-108"/>
<text text-anchor="middle" x="1918.88" y="-91.75" font-family="sans" font-size="10.00">rotate</text>
<text text-anchor="middle" x="1918.88" y="-80.5" font-family="sans" font-size="10.00">sample: 48205</text>
</g>
<!-- 39&#45;&gt;38 -->
<g id="edge20" class="edge">
<title>39&#45;&gt;38</title>
<path fill="none" stroke="grey" stroke-width="2" d="M1918.88,-71.34C1918.88,-64.75 1918.88,-57.08 1918.88,-49.67"/>
<polygon fill="grey" stroke="grey" stroke-width="2" points="1922.38,-49.93 1918.88,-39.93 1915.38,-49.93 1922.38,-49.93"/>
</g>
</g>
</svg>
